PathFileType	4	(X/Y/Z)	./resultDataOpenSim/trcMotMarkerGrf/sub09/qtm-03-01.trc
DataRate	CameraRate	NumFrames	NumMarkers	Units	OrigDataRate	OrigDataStartFrame	OrigNumFrames
250.000000	250.000000	14	24	m	250.000000	60	477
Frame#	Time	L.Toe.Tip			R.Toe.Tip			L.Ankle.Lat			R.Ankle.Lat			L.Ankle.Med			R.Ankle.Med			L.Heel			R.Heel			L.Knee.Lat			R.Knee.Lat			L.Knee.Med			R.Knee.Med			L.Thigh.Upper			R.Thigh.Upper			L.ASIS			R.ASIS			V.Sacral			L.Acromium			R.Acromium			C7			L.Elbow			R.Elbow			L.Wrist.Lat			R.Wrist.Lat
		X1	Y1	Z1	X2	Y2	Z2	X3	Y3	Z3	X4	Y4	Z4	X5	Y5	Z5	X6	Y6	Z6	X7	Y7	Z7	X8	Y8	Z8	X9	Y9	Z9	X10	Y10	Z10	X11	Y11	Z11	X12	Y12	Z12	X13	Y13	Z13	X14	Y14	Z14	X15	Y15	Z15	X16	Y16	Z16	X17	Y17	Z17	X18	Y18	Z18	X19	Y19	Z19	X20	Y20	Z20	X21	Y21	Z21	X22	Y22	Z22	X23	Y23	Z23	X24	Y24	Z24

60	0.236	-1.3357226	0.10706545	-0.08076813	-0.66339223	0.039656729	0.08193098	-1.3633804	0.26175213	-0.10760185	-0.81052355	0.053859971	0.11291312	-1.3388335	0.23944033	-0.01458608	-0.80160958	0.09133556	0.021767164	-1.4264496	0.30453348	-0.056428653	-0.87787695	0.031323077	0.063662965	-0.98623126	0.42481735	-0.13110898	-0.76806607	0.50807963	0.16588305	-0.97756122	0.41178482	-0.0051191064	-0.78404371	0.49332592	0.040030281	-0.97605618	0.83144478	-0.15392898	-0.95890604	0.86849879	0.21777742	-0.88755305	0.91795345	-0.1009205	-0.88345606	0.94967111	0.13821892	-1.0526941	0.99326623	0.018167263	-0.8552562	1.3844518	-0.13791528	-0.90244759	1.3870861	0.18753727	-0.94407311	1.4418271	0.020157003	-0.96968885	1.029297	-0.22065043	-1.0504682	1.0495242	0.25325806	-0.76053907	0.86070167	-0.1914188	-0.92862882	0.80866402	0.28604712
61	0.24	-1.3213997	0.10912194	-0.080314924	-0.66346955	0.039669543	0.081905633	-1.34977	0.26342768	-0.10694233	-0.81062127	0.053938218	0.11295496	-1.3266753	0.24099692	-0.013445256	-0.8015446	0.091335411	0.021750525	-1.4134448	0.30590441	-0.055923881	-0.87795898	0.031322192	0.063574892	-0.97285449	0.42614356	-0.13044988	-0.76563933	0.50794162	0.16600586	-0.96363823	0.41297125	-0.0037210378	-0.78169702	0.49310747	0.040110811	-0.97004451	0.83268936	-0.15381811	-0.95529842	0.87000646	0.21759929	-0.88210593	0.91953922	-0.1007082	-0.8775439	0.9512517	0.13839911	-1.0471722	0.99482047	0.018402056	-0.84966061	1.3858828	-0.13786271	-0.89635663	1.388524	0.18766976	-0.93836379	1.4435429	0.020073334	-0.96444041	1.0307698	-0.21992595	-1.04367	1.0504023	0.25386712	-0.75741318	0.85979853	-0.19129415	-0.91922402	0.81051252	0.28581854
62	0.244	-1.3068936	0.1108838	-0.079561877	-0.66355555	0.0396855	0.081898866	-1.3361276	0.26481233	-0.10622834	-0.81073585	0.054006345	0.1129851	-1.313633	0.24269203	-0.012649288	-0.8014916	0.091334869	0.021740921	-1.400381	0.30692757	-0.055440091	-0.87804355	0.03132925	0.063499387	-0.95947309	0.42761586	-0.12967152	-0.76330802	0.50783775	0.16616188	-0.95032777	0.41430784	-0.0023386275	-0.77949208	0.49290387	0.040220612	-0.96397544	0.83405336	-0.15369445	-0.952169	0.87139255	0.21731196	-0.8766896	0.92122671	-0.10050426	-0.8721994	0.95278142	0.13853178	-1.0416844	0.99644722	0.01859424	-0.84396299	1.387374	-0.13780326	-0.89028274	1.390029	0.18779336	-0.93279874	1.4452844	0.019743706	-0.95924166	1.0323487	-0.21913968	-1.0368834	1.0513847	0.25447138	-0.75434582	0.8590174	-0.19118676	-0.90981374	0.81248328	0.28556969
63	0.248	-1.2922002	0.11235742	-0.078538289	-0.66364849	0.039705272	0.081911688	-1.322425	0.26591221	-0.10547811	-0.81086393	0.054084352	0.11301107	-1.2994108	0.24440354	-0.012219789	-0.80145689	0.091336763	0.021739176	-1.3873416	0.30762178	-0.054916251	-0.8781246	0.031343216	0.063428967	-0.94619854	0.42922905	-0.12868707	-0.7610805	0.50774003	0.16634183	-0.93725333	0.41583592	-0.00098101732	-0.77746153	0.49273439	0.040382747	-0.95779582	0.83555222	-0.15346677	-0.94858502	0.8727886	0.2171126	-0.87130397	0.92301071	-0.10029979	-0.86741548	0.95424786	0.1386136	-1.0362353	0.99812977	0.018743285	-0.8383323	1.3889249	-0.13776369	-0.88422935	1.3915963	0.18790895	-0.92724363	1.4469838	0.019472226	-0.95409459	1.0340225	-0.21827342	-1.0301201	1.0524545	0.25507201	-0.75134611	0.85836024	-0.19109936	-0.90041733	0.81458605	0.28529476
64	0.252	-1.2772076	0.11358928	-0.077361058	-0.66374913	0.03973149	0.081941209	-1.3086099	0.26672361	-0.10472563	-0.81100232	0.054176493	0.1130401	-1.2845091	0.24591766	-0.011924411	-0.80146222	0.091340577	0.021745241	-1.3742909	0.30797983	-0.054399793	-0.87819779	0.03135938	0.063354399	-0.93312655	0.43101435	-0.12751511	-0.75898478	0.50762368	0.16651414	-0.92411352	0.4176342	0.0003173743	-0.77552567	0.49261252	0.040516655	-0.95151736	0.83717905	-0.15313855	-0.94386552	0.87430392	0.21714941	-0.86594462	0.92487518	-0.10008146	-0.86279857	0.95567381	0.13869059	-1.0308272	0.99984218	0.018855298	-0.8328954	1.3905316	-0.13776158	-0.87819771	1.3932254	0.18801557	-0.92162064	1.4486369	0.019399383	-0.94900672	1.035784	-0.21734351	-1.0233956	1.0535988	0.2556665	-0.74841785	0.85782978	-0.19103093	-0.89105994	0.81681987	0.28499205
65	0.256	-1.2618194	0.11462322	-0.076135008	-0.66386022	0.039765454	0.081983409	-1.2946562	0.26724039	-0.10398152	-0.81114793	0.054268396	0.11307169	-1.2696905	0.2470797	-0.011476231	-0.80153612	0.091343212	0.021758326	-1.3611064	0.30797603	-0.054019186	-0.87826494	0.031374052	0.063272896	-0.92024149	0.43300053	-0.12627254	-0.75704634	0.5074822	0.16665757	-0.91083817	0.4197786	0.0015370512	-0.77356588	0.4925461	0.040514819	-0.94521752	0.8389012	-0.15279811	-0.93816912	0.87592049	0.21739841	-0.86061164	0.92680418	-0.09984138	-0.85796752	0.95709301	0.13880987	-1.025457	1.0015667	0.018941428	-0.82760975	1.3921848	-0.13778281	-0.87219876	1.3949161	0.18811715	-0.91593288	1.4502718	0.019488997	-0.94397532	1.0376413	-0.21632613	-1.0167178	1.0548112	0.25625513	-0.74557318	0.8574267	-0.19098737	-0.88174209	0.81917113	0.28466816
66	0.26	-1.2460584	0.11546671	-0.074874968	-0.66398478	0.039806493	0.082037577	-1.2805652	0.26746651	-0.10323893	-0.81129514	0.054340721	0.11310195	-1.2551989	0.24786748	-0.010790566	-0.80167816	0.091346334	0.021777181	-1.3477118	0.30759884	-0.053840938	-0.8783315	0.031387079	0.063184374	-0.9074363	0.43517929	-0.1251657	-0.75526435	0.50733143	0.16677732	-0.8976187	0.42224745	0.002744518	-0.77155215	0.49253479	0.04036617	-0.93896753	0.8406869	-0.15251899	-0.93211009	0.87754516	0.21774454	-0.85531145	0.92878701	-0.099577521	-0.8528751	0.95852333	0.13898227	-1.0201097	1.0033102	0.019014732	-0.82236137	1.3938732	-0.13780192	-0.86624408	1.3966632	0.18821871	-0.9102217	1.4519188	0.019645846	-0.93898891	1.0396006	-0.2151541	-1.0100914	1.0560911	0.25684005	-0.74283421	0.85714985	-0.19098448	-0.87242393	0.82163428	0.28433469
67	0.264	-1.2300179	0.11610475	-0.073542124	-0.66412511	0.039853872	0.082108062	-1.2663534	0.2674157	-0.10249289	-0.81143716	0.054380766	0.1131363	-1.2407179	0.24834345	-0.0099794807	-0.80184316	0.09135975	0.021801799	-1.3341634	0.30687105	-0.053765938	-0.87839992	0.031400411	0.063089956	-0.89466372	0.43750903	-0.12422662	-0.75361301	0.50719796	0.16689353	-0.88470898	0.42485483	0.0040767253	-0.76958097	0.49256456	0.040192943	-0.93277743	0.84252355	-0.15230034	-0.92619251	0.87910894	0.21810029	-0.85004862	0.93081675	-0.099289878	-0.84767422	0.95996545	0.13919735	-1.0147644	1.0050897	0.019089258	-0.81708902	1.3955881	-0.13780855	-0.86032486	1.3984552	0.18831542	-0.90452027	1.4535974	0.019801689	-0.93404746	1.0416404	-0.21383406	-1.0035253	1.0574396	0.25742599	-0.7401967	0.85699482	-0.19103216	-0.86306857	0.82421828	0.28399962
68	0.268	-1.2137682	0.11652399	-0.072110168	-0.66428177	0.03990772	0.082201153	-1.2520388	0.26709555	-0.10173865	-0.81156925	0.054389671	0.11318238	-1.2258694	0.24858203	-0.0091822324	-0.80198438	0.091392256	0.021834112	-1.3205649	0.30582449	-0.053635628	-0.87846829	0.031415383	0.062994325	-0.88190138	0.4399606	-0.12324261	-0.75205116	0.5071022	0.16702389	-0.87207626	0.4273727	0.0055953011	-0.76776061	0.49261189	0.040136026	-0.92662078	0.84441106	-0.1521095	-0.92072437	0.88059312	0.21841342	-0.84480997	0.93289111	-0.098979112	-0.84248381	0.96141054	0.13944331	-1.0094091	1.0069034	0.019181378	-0.81179497	1.3973263	-0.13780571	-0.85442329	1.4002796	0.18839968	-0.89883992	1.45531	0.019931454	-0.92916676	1.0437206	-0.21246799	-0.99703136	1.0588489	0.25802148	-0.73761483	0.85695097	-0.19112542	-0.85373532	0.82691369	0.28365894
69	0.272	-1.1973312	0.11672513	-0.070587689	-0.66445165	0.039968037	0.082317918	-1.2376312	0.26650052	-0.10096321	-0.81168642	0.054396432	0.11321376	-1.2106657	0.24861913	-0.0084386927	-0.80209541	0.091442989	0.021875025	-1.3069438	0.30446721	-0.053396936	-0.878535	0.031431809	0.062905162	-0.86908238	0.44254925	-0.12205254	-0.75053415	0.50704923	0.1671726	-0.85951597	0.42976377	0.0072091841	-0.76607146	0.4926621	0.040227714	-0.92048444	0.8463557	-0.15193765	-0.9159016	0.88200073	0.21863557	-0.83954766	0.93501246	-0.09864798	-0.83732488	0.96284788	0.13971269	-1.0040453	1.0087297	0.019302535	-0.80650281	1.3990846	-0.13779805	-0.84853869	1.4021302	0.18847673	-0.89317737	1.457045	0.020041251	-0.92435603	1.0458213	-0.21110401	-0.99060889	1.0602982	0.25863457	-0.73503922	0.85700388	-0.19125267	-0.84458209	0.82967275	0.28329993
70	0.276	-1.1807004	0.11672553	-0.069010786	-0.6646278	0.040033764	0.082449505	-1.2231281	0.26563007	-0.10015461	-0.81177983	0.054448881	0.11317546	-1.1954689	0.24844018	-0.0076960204	-0.80219368	0.091505823	0.02192158	-1.2932579	0.30279161	-0.053101823	-0.87860058	0.031448682	0.062830046	-0.85628124	0.44529889	-0.12069616	-0.74903962	0.5070265	0.16733123	-0.84714666	0.43224873	0.0087925921	-0.76436891	0.49272063	0.040400078	-0.91438653	0.84836482	-0.15179702	-0.91165983	0.88334339	0.21874017	-0.83419271	0.93717968	-0.098300671	-0.83217315	0.96426815	0.14000145	-0.99867705	1.0105509	0.01944834	-0.80122854	1.4008525	-0.13779097	-0.84268993	1.4040074	0.18855791	-0.88752602	1.4587836	0.020146706	-0.91961588	1.0479346	-0.20975434	-0.98423094	1.0617623	0.25926208	-0.73245214	0.85714493	-0.1914067	-0.83568456	0.83245443	0.28291673
71	0.28	-1.1638596	0.11655219	-0.067434553	-0.66480243	0.040103052	0.082581512	-1.208529	0.26450675	-0.099310562	-0.81185337	0.054561268	0.11306814	-1.1805442	0.24801611	-0.0068924521	-0.8022901	0.091576279	0.02196829	-1.2794671	0.30079655	-0.052788048	-0.87866431	0.031465713	0.06277045	-0.84370916	0.44819279	-0.11929985	-0.74757779	0.50700787	0.16749144	-0.83533777	0.43509859	0.010322241	-0.76253264	0.49279479	0.04057543	-0.9083572	0.85043254	-0.15169288	-0.90755005	0.88466046	0.21875381	-0.82871693	0.9393786	-0.09793847	-0.82702725	0.96566035	0.14030369	-0.9933004	1.0123635	0.019605257	-0.79597315	1.4026161	-0.1377929	-0.83689808	1.4059102	0.18864386	-0.88188578	1.4605045	0.020254307	-0.91495261	1.050036	-0.20851335	-0.97785107	1.063222	0.25988418	-0.72985784	0.8573752	-0.19158829	-0.82691446	0.83526973	0.28251567
72	0.284	-1.1467857	0.11623909	-0.06592804	-0.66497029	0.040173933	0.082703443	-1.1938468	0.26316037	-0.098423889	-0.81196706	0.054687415	0.11299079	-1.1658154	0.24734379	-0.0060023165	-0.80238677	0.091651626	0.02201053	-1.2655805	0.29849081	-0.052403451	-0.87872075	0.031484267	0.062713781	-0.83142459	0.45118925	-0.1179407	-0.74616444	0.50696936	0.1676554	-0.82423548	0.43839791	0.01187758	-0.76061077	0.49286642	0.040715586	-0.90238722	0.85253604	-0.15162297	-0.90308001	0.88600055	0.21874663	-0.82317833	0.94158355	-0.097561876	-0.82189913	0.96701706	0.14061738	-0.98790367	1.014169	0.019765754	-0.79073065	1.4043663	-0.13781045	-0.83116272	1.407829	0.18872682	-0.87627042	1.4621964	0.020363669	-0.91036802	1.052106	-0.20744903	-0.97142959	1.0646712	0.26047693	-0.727261	0.85769506	-0.19180754	-0.81808761	0.83815248	0.28210641
73	0.288	-1.129469	0.11583423	-0.064538872	-0.66512926	0.040244922	0.082812999	-1.1790966	0.26159898	-0.097468763	-0.81225742	0.054753371	0.11307004	-1.1510458	0.24644106	-0.0050312933	-0.80248493	0.091729755	0.022046769	-1.2516344	0.29588334	-0.051873034	-0.87876079	0.031504487	0.062636078	-0.81931745	0.45426106	-0.11660816	-0.74479601	0.50690548	0.1678211	-0.81362973	0.44202805	0.013527028	-0.7587742	0.49289827	0.040809933	-0.89639349	0.8546514	-0.1516039	-0.8981683	0.88736232	0.2187799	-0.81766891	0.94377	-0.097177391	-0.81677365	0.96834066	0.14095272	-0.98247779	1.0159619	0.019930257	-0.78549824	1.406098	-0.13784203	-0.8254513	1.4097455	0.18879909	-0.87070855	1.4638802	0.020483043	-0.90584935	1.05415	-0.20651037	-0.96494823	1.0661183	0.26102956	-0.72466571	0.85809266	-0.19208544	-0.80913799	0.84111268	0.28169431
